<?xml version="1.0" encoding="UTF-8"?>
<svg width="183px" height="113px" viewBox="0 0 183 113" version="1.1" xmlns="http://www.w3.org/2000/svg" xmlns:xlink="http://www.w3.org/1999/xlink">
    <!-- Generator: Sketch 49.3 (51167) - http://www.bohemiancoding.com/sketch -->
    <title>cmd_icon_laptop</title>
    <desc>Created with Sketch.</desc>
    <defs></defs>
    <g id="Page-1" stroke="none" stroke-width="1" fill="none" fill-rule="evenodd">
        <g id="iPhone-8-Copy-5" transform="translate(-96.000000, -291.000000)" fill-rule="nonzero">
            <g id="Header" transform="translate(32.000000, 176.000000)">
                <g id="cmd_icon_laptop" transform="translate(64.000000, 115.000000)">
                    <polygon id="Shape" fill="#FFFFFF" points="162.507412 94.0563743 162.507412 3 20.4925879 3 20.4925879 94.0563743 3 110 180 110"></polygon>
                    <path d="M181.628,107.404566 L165.48829,92.6926378 L165.48829,3.12222574 C165.48829,1.39786808 164.092233,1.05586455e-16 162.370108,0 L20.6050847,0 C18.8829604,-1.05586455e-16 17.4869028,1.39786808 17.4869028,3.12222574 L17.4869028,92.5927266 L1.04784758,107.57941 C0.0759022876,108.437357 -0.259019701,109.81094 0.208721198,111.020837 C0.676462097,112.230735 1.84773206,113.02052 3.14326584,112.999594 L179.881818,112.999594 C181.594247,112.999649 182.986301,111.616941 183,109.902346 C182.963079,108.899299 182.454234,107.972927 181.628,107.404566 Z M23.7232666,6.24445148 L159.251926,6.24445148 L159.251926,90.869258 L23.7232666,90.869258 L23.7232666,6.24445148 Z M11.2505389,106.78012 L21.8523575,97.1137095 L161.172726,97.1137095 L171.774545,106.78012 L11.2505389,106.78012 Z" id="Shape" fill="#1A1A18"></path>
                    <path d="M153.75151,12.0000021 L32.2484897,12.0000021 C31.5589679,12.0000021 31,12.5635913 31,13.2588137 L31,85.7411884 C31,86.4364108 31.5589679,87 32.2484897,87 L153.75151,87 C154.441032,87 155,86.4364108 155,85.7411884 L155,13.183285 C154.960323,12.5177212 154.412807,11.9988009 153.75151,12.0000021 Z M141.416432,55.6807662 C141.287444,56.4505246 140.701938,57.0608833 139.943214,57.2165164 L129.4559,59.3061438 L135.673379,68.5709975 C136.141783,69.2616053 136.318164,70.1118471 136.163546,70.9338452 C136.008928,71.7558433 135.53604,72.48193 134.849376,72.951662 C133.416901,73.9064735 131.490906,73.5381787 130.504631,72.1208463 L124.387032,63.1077549 L118.943617,72.4984898 C118.602062,73.0744949 117.986176,73.4279744 117.32058,73.4300104 L116.995973,73.4300104 C116.221736,73.3034691 115.611098,72.697876 115.472815,71.9194365 L109.480064,38.6364565 C109.366895,37.9048417 109.676955,37.1721305 110.279098,36.7482391 C110.889361,36.3296222 111.691388,36.3296222 112.301651,36.7482391 L140.542489,53.9184299 C141.134456,54.2978709 141.470548,54.9756129 141.416432,55.6807662 Z" id="Shape" fill="#1A1A18"></path>
                    <path d="M117.521898,65 L122.631387,56.3180873 C122.927448,55.8626678 123.395728,55.5398732 123.934307,55.4199584 L134,53.4740125 L113,41 L117.521898,65 Z" id="Shape" fill="#1A1A18"></path>
                </g>
            </g>
        </g>
    </g>
</svg>