<?xml version="1.0" encoding="UTF-8"?>
<svg width="248px" height="201px" viewBox="0 0 248 201" version="1.1" xmlns="http://www.w3.org/2000/svg" xmlns:xlink="http://www.w3.org/1999/xlink">
    <!-- Generator: Sketch 49.3 (51167) - http://www.bohemiancoding.com/sketch -->
    <title>Asset 2</title>
    <desc>Created with Sketch.</desc>
    <defs></defs>
    <g id="Page-1" stroke="none" stroke-width="1" fill="none" fill-rule="evenodd">
        <g id="iPhone-8-Copy-5" transform="translate(-64.000000, -1014.000000)" fill-rule="nonzero">
            <g id="Header_bottom" transform="translate(0.000000, 982.000000)">
                <g id="Group-2">
                    <g id="Asset-2" transform="translate(64.000000, 32.000000)">
                        <path d="M241,189.065758 C240.941058,192.38149 238.226868,195.029881 234.918583,194.999745 L13.0814167,194.999745 C9.77313218,195.029881 7.05894234,192.38149 7,189.065758 L7,12.9881758 C7.01420983,11.38575 7.66292726,9.85462096 8.80342806,8.73165206 C9.94392887,7.60868316 11.4827792,6.98587206 13.0814167,7.0002433 L234.918583,7.0002433 C236.517221,6.98587206 238.056071,7.60868316 239.196572,8.73165206 C240.337073,9.85462096 240.98579,11.38575 241,12.9881758 L241,189.065758 Z" id="Shape" fill="#FFFFFF"></path>
                        <path d="M235.06087,0.000456630771 L12.8313043,0.000456630771 C5.78666666,0.000208345624 0.0591986316,5.66920385 0,12.7007644 L0,188.352478 C0.0593112878,195.375351 5.79543301,201.028854 12.8313043,200.998971 L235.06087,200.998971 C238.458969,201.042029 241.734262,199.732086 244.162435,197.35883 C246.590608,194.985573 247.971596,191.744544 248,188.352478 L248,12.7007644 C247.971523,9.30385038 246.592269,6.05737089 244.165685,3.67557539 C241.739101,1.29377988 238.463979,-0.0282087955 235.06087,0.000456630771 Z M234.413913,187.329996 L13.4782609,187.329996 L13.4782609,13.4541725 L234.521739,13.4541725 L234.413913,187.329996 Z" id="Shape" fill="#1A1A18"></path>
                        <circle id="Oval" fill="#1A1A18" cx="99" cy="182" r="4"></circle>
                        <circle id="Oval" fill="#1A1A18" cx="115" cy="182" r="4"></circle>
                        <circle id="Oval" fill="#1A1A18" cx="131" cy="182" r="4"></circle>
                        <circle id="Oval" fill="#1A1A18" cx="147" cy="182" r="4"></circle>
                        <circle id="Oval" fill="#1A1A18" cx="163" cy="182" r="4"></circle>
                        <circle id="Oval" fill="#1A1A18" cx="179" cy="182" r="4"></circle>
                        <circle id="Oval" fill="#1A1A18" cx="123" cy="165" r="4"></circle>
                        <circle id="Oval" fill="#1A1A18" cx="107" cy="165" r="4"></circle>
                        <circle id="Oval" fill="#1A1A18" cx="99" cy="149" r="4"></circle>
                        <circle id="Oval" fill="#1A1A18" cx="90" cy="165" r="4"></circle>
                        <circle id="Oval" fill="#1A1A18" cx="82" cy="182" r="4"></circle>
                        <circle id="Oval" fill="#1A1A18" cx="66" cy="182" r="4"></circle>
                        <circle id="Oval" fill="#1A1A18" cx="147" cy="149" r="4"></circle>
                        <circle id="Oval" fill="#1A1A18" cx="163" cy="149" r="4"></circle>
                        <circle id="Oval" fill="#1A1A18" cx="155" cy="133" r="4"></circle>
                        <circle id="Oval" fill="#1A1A18" cx="212" cy="52" r="4"></circle>
                        <circle id="Oval" fill="#1A1A18" cx="220" cy="36" r="4"></circle>
                        <circle id="Oval" fill="#1A1A18" cx="171" cy="133" r="4"></circle>
                        <circle id="Oval" fill="#1A1A18" cx="187" cy="133" r="4"></circle>
                        <circle id="Oval" fill="#1A1A18" cx="196" cy="117" r="4"></circle>
                        <circle id="Oval" fill="#1A1A18" cx="212" cy="117" r="4"></circle>
                        <circle id="Oval" fill="#1A1A18" cx="179" cy="117" r="4"></circle>
                        <circle id="Oval" fill="#1A1A18" cx="163" cy="117" r="4"></circle>
                        <circle id="Oval" fill="#1A1A18" cx="187" cy="101" r="4"></circle>
                        <circle id="Oval" fill="#1A1A18" cx="204" cy="101" r="4"></circle>
                        <circle id="Oval" fill="#1A1A18" cx="220" cy="101" r="4"></circle>
                        <circle id="Oval" fill="#1A1A18" cx="212" cy="84" r="4"></circle>
                        <circle id="Oval" fill="#1A1A18" cx="196" cy="84" r="4"></circle>
                        <circle id="Oval" fill="#1A1A18" cx="220" cy="68" r="4"></circle>
                        <circle id="Oval" fill="#1A1A18" cx="228" cy="52" r="4"></circle>
                        <circle id="Oval" fill="#1A1A18" cx="139" cy="165" r="4"></circle>
                        <circle id="Oval" fill="#1A1A18" cx="155" cy="165" r="4"></circle>
                        <circle id="Oval" fill="#1A1A18" cx="171" cy="165" r="4"></circle>
                        <circle id="Oval" fill="#1A1A18" cx="179" cy="149" r="4"></circle>
                        <circle id="Oval" fill="#1A1A18" cx="187" cy="165" r="4"></circle>
                        <circle id="Oval" fill="#1A1A18" cx="196" cy="182" r="4"></circle>
                        <circle id="Oval" fill="#1A1A18" cx="212" cy="182" r="4"></circle>
                        <circle id="Oval" fill="#1A1A18" cx="228" cy="182" r="4"></circle>
                        <circle id="Oval" fill="#1A1A18" cx="204" cy="133" r="4"></circle>
                        <circle id="Oval" fill="#1A1A18" cx="220" cy="133" r="4"></circle>
                        <circle id="Oval" fill="#1A1A18" cx="228" cy="117" r="4"></circle>
                        <circle id="Oval" fill="#1A1A18" cx="204" cy="165" r="4"></circle>
                        <circle id="Oval" fill="#1A1A18" cx="220" cy="165" r="4"></circle>
                        <circle id="Oval" fill="#1A1A18" cx="196" cy="149" r="4"></circle>
                        <circle id="Oval" fill="#1A1A18" cx="212" cy="149" r="4"></circle>
                        <circle id="Oval" fill="#1A1A18" cx="228" cy="149" r="4"></circle>
                        <circle id="Oval" fill="#1A1A18" cx="228" cy="84" r="4"></circle>
                        <path d="M108.000094,142.945162 C107.977991,149.421388 111.862162,155.272223 117.83908,157.765898 C123.815998,160.259573 130.706719,158.904213 135.293948,154.332637 C139.881178,149.761062 141.260088,142.875013 138.786862,136.889602 C136.313637,130.904191 130.476118,127.000038 123.999857,127 C115.184713,126.999949 108.03018,134.130067 108.000094,142.945162 Z" id="Shape" fill="#1A1A18"></path>
                        <path d="M155.12148,109.119636 C146.726396,100.719693 135.335551,96 123.45761,96 C111.579668,96 100.188823,100.719693 91.793739,109.119636 C91.2857414,109.62331 91,110.308932 91,111.024173 C91,111.739414 91.2857414,112.425037 91.793739,112.928711 L102.956595,124.194989 C104.018213,125.223886 105.705375,125.223886 106.766993,124.194989 C111.187869,119.759083 117.193818,117.26562 123.45761,117.26562 C129.721401,117.26562 135.72735,119.759083 140.148226,124.194989 C140.653107,124.718916 141.352603,125.010271 142.080259,124.999723 C142.791912,125.008396 143.474111,124.716126 143.958624,124.194989 L155.12148,113.089658 C155.681003,112.581268 156,111.860496 156,111.104647 C156,110.348797 155.681003,109.628025 155.12148,109.119636 Z" id="Shape" fill="#1A1A18"></path>
                        <path d="M123.94795,64.0000728 C103.608595,64.0288031 84.1219814,72.0704051 69.8123138,86.3403957 C69.2864492,86.8229057 68.991528,87.5022856 69.0002793,88.2109969 C68.9896354,88.9356454 69.2836339,89.6322498 69.8123138,90.1350438 L80.6394411,101.198314 C81.1383745,101.701046 81.8212778,101.984348 82.5341883,101.984348 C83.2470989,101.984348 83.9300021,101.701046 84.4289356,101.198314 C94.8589585,90.8784451 109.018951,85.0788859 123.785543,85.0788859 C138.552135,85.0788859 152.712128,90.8784451 163.142151,101.198314 C163.645205,101.697029 164.324163,101.984303 165.036898,102 C165.749633,101.984303 166.42859,101.697029 166.931645,101.198314 L178.083586,90.1350438 C178.666222,89.6277554 179,88.8977763 179,88.1308283 C179,87.3638802 178.666222,86.6339011 178.083586,86.1266127 C163.738273,71.9350647 144.256082,63.9722232 123.94795,64.0000728 Z" id="Shape" fill="#1A1A18"></path>
                        <path d="M59.0436073,79.1959108 C59.5502997,79.7105326 60.240031,80 60.9595584,80 C61.6790858,80 62.3688171,79.7105326 62.8755095,79.1959108 C79.2097892,62.6854709 101.397233,53.4052783 124.536752,53.4052783 C147.676272,53.4052783 169.863716,62.6854709 186.197995,79.1959108 C186.704958,79.6881672 187.382842,79.9613153 188.086961,79.9570543 C188.79108,79.9613153 189.468965,79.6881672 189.975927,79.1959108 L201.201782,67.9418597 C201.712646,67.4314407 202,66.7366366 202,66.0118171 C202,65.2869977 201.712646,64.5921936 201.201782,64.0817746 C180.887148,43.5441336 153.290705,32 124.509767,32 C95.7288295,32 68.1323868,43.5441336 47.817753,64.0817746 C47.2959816,64.5750681 47,65.2637984 47,65.9846334 C47,66.7054685 47.2959816,67.3941988 47.817753,67.8874923 L59.0436073,79.1959108 Z" id="Shape" fill="#1A1A18"></path>
                    </g>
                </g>
            </g>
        </g>
    </g>
</svg>